<svg width="20" height="20" viewBox="0 0 20 20" xmlns="http://www.w3.org/2000/svg"><path d="M12.4638799 3.14406199L7.82942088 5.93044304c-.07652995.04573984-.16550303.07043748-.25489712.07043748h-3.5786171C2.89389412 6.00088052 2 6.89641597 2 8.00045198V11.999548c0 1.104036.89389412 1.9995715 1.99590666 1.9995715h3.5786171c.08939409 0 .17836717.0246976.25714249.0717965l4.63221365 2.785022c.6651463.3998956 1.5114665-.0800916 1.5114665-.8572471V4.00130907c0-.77715549-.8463202-1.25714262-1.5114665-.85724708zm2.9976725 1.99750941c.4736811-.28226542 1.0861078-.12634693 1.3678091.34825077.158954.26783113.3779251.72171468.5920312 1.33198537.8490801 2.42004056.8490801 5.07773146-.5763603 7.66100136-.2666854.4832208-.8738729.6584475-1.356208.3912725-.4823352-.2671751-.6571939-.8754774-.3905554-1.3586982 1.1159994-2.0223945 1.1159994-4.10435393.4401876-6.03048857-.1670935-.47628483-.3293688-.81267886-.4245167-.97300262-.2817481-.47455084-.1261154-1.08810205.3476125-1.37032061zm-3.4821126.62578287v8.46529143l-3.12299263-1.8776298c-.38947943-.2327764-.8315849-.3554679-1.28192341-.3554679h-3.5786171V8.00045198h3.5786171c.45033851 0 .89249076-.1226915 1.27967803-.35410884l3.12523801-1.87898887z" fill-rule="nonzero"/></svg>