<svg width="20px" height="20px" viewBox="0 0 20 20" xmlns="http://www.w3.org/2000/svg"><g stroke="none" stroke-width="1" fill-rule="evenodd"><g fill-rule="nonzero"><path d="M11.4854219,3.14406199 L6.84142187,5.93044304 C6.76473438,5.97618288 6.67557812,6.00088052 6.586,6.00088052 L3.00001562,6.00088052 C1.89573438,6.00088052 1,6.89641597 1,8.00045198 L1,11.999548 C1,13.103584 1.89573438,13.9991195 3.00001562,13.9991195 L6.586,13.9991195 C6.67557812,13.9991195 6.76473437,14.0238171 6.84367188,14.070916 L11.4854219,16.855938 C12.1519375,17.2558336 13,16.7758464 13,15.9986909 L13,4.00130907 C13,3.22415358 12.1519375,2.74416645 11.4854219,3.14406199 Z M11.0164852,14.2326457 L7.88060853,12.3550159 C7.48952229,12.1222395 7.04559289,11.999548 6.59339648,11.999548 L3.00001563,11.999548 L3.00001563,8.00045198 L6.59339648,8.00045198 C7.04559289,8.00045198 7.48956926,7.87776048 7.87835389,7.64634314 L11.0164852,5.76735427 L11.0164852,14.2326457 Z"></path><path d="M14.2928932,7.29289322 C14.6834175,6.90236893 15.3165825,6.90236893 15.7071068,7.29289322 L15.7071068,7.29289322 L16.767,8.353 L17.8284271,7.29289322 C18.2189514,6.90236893 18.8521164,6.90236893 19.2426407,7.29289322 C19.633165,7.68341751 19.633165,8.31658249 19.2426407,8.70710678 L18.182,9.767 L19.2426407,10.8284271 C19.6031246,11.1889111 19.6308542,11.7561421 19.3258293,12.1484333 L19.2426407,12.2426407 C18.8521164,12.633165 18.2189514,12.633165 17.8284271,12.2426407 L17.8284271,12.2426407 L16.767,11.182 L15.7071068,12.2426407 C15.3165825,12.633165 14.6834175,12.633165 14.2928932,12.2426407 C13.9023689,11.8521164 13.9023689,11.2189514 14.2928932,10.8284271 L15.353,9.767 L14.2928932,8.70710678 C13.9324093,8.34662282 13.9046797,7.77939176 14.2097046,7.38710056 Z"></path></g></g></svg>